<svg id="Layer_1" data-name="Layer 1" xmlns="http://www.w3.org/2000/svg" viewBox="0 0 152.06 18.49">
    <defs>
        <style>
            .cls-1 {
            fill: #009182;
            }
        </style>
    </defs>
    <path class="cls-1"
        d="M4.51,17.28c-1.38-.77-2.48-1.85-3.29-3.25-.81-1.4-1.22-3-1.22-4.81s.41-3.41,1.22-4.81c.81-1.4,1.91-2.48,3.29-3.25,1.38-.77,2.9-1.15,4.56-1.15,1.43,0,2.72,.25,3.85,.76,1.13,.5,2.06,1.21,2.79,2.12,.73,.91,1.22,1.96,1.47,3.14l-.1,.2-3,.23c-.32-1.13-.93-2.01-1.82-2.64-.89-.63-1.97-.95-3.25-.95-1.16,0-2.18,.27-3.06,.81-.88,.54-1.55,1.29-2.02,2.25-.47,.96-.7,2.06-.7,3.29s.24,2.33,.72,3.29c.48,.96,1.16,1.72,2.04,2.25,.88,.54,1.91,.81,3.08,.81,1.26,0,2.33-.32,3.2-.95,.87-.63,1.48-1.51,1.82-2.64l2.97,.23,.13,.2c-.48,1.88-1.43,3.35-2.85,4.42-1.43,1.07-3.18,1.6-5.26,1.6-1.66,0-3.17-.38-4.56-1.15"></path>
    <path class="cls-1"
        d="M22.64,17.56c-1.03-.58-1.83-1.37-2.41-2.38-.57-1.01-.86-2.14-.86-3.4s.29-2.4,.86-3.4c.57-1.01,1.37-1.8,2.41-2.38,1.03-.58,2.21-.87,3.52-.87s2.48,.29,3.51,.87c1.02,.58,1.82,1.37,2.39,2.38,.57,1.01,.86,2.14,.86,3.4s-.29,2.4-.86,3.4c-.57,1.01-1.37,1.8-2.39,2.38-1.02,.58-2.19,.87-3.51,.87s-2.49-.29-3.52-.87m6.28-2.8c.72-.73,1.08-1.72,1.08-2.98s-.36-2.26-1.08-2.98c-.72-.73-1.64-1.09-2.76-1.09s-2.05,.36-2.78,1.09c-.73,.73-1.09,1.72-1.09,2.98s.36,2.26,1.09,2.98c.73,.73,1.65,1.09,2.78,1.09s2.05-.36,2.76-1.09"></path>
    <path class="cls-1"
        d="M35.53,5.38h2.92v1.66c.53-.55,1.17-1,1.93-1.37,.76-.37,1.57-.55,2.44-.55,1.37,0,2.43,.39,3.19,1.16,.76,.78,1.14,1.8,1.14,3.08v8.81h-2.92V10.11c0-.78-.2-1.39-.6-1.8-.4-.42-.99-.63-1.75-.63-.65,0-1.28,.2-1.88,.6-.61,.4-1.12,.92-1.55,1.55v8.35h-2.92V5.38Z"></path>
    <path class="cls-1"
        d="M51.22,17.37c-.94-.71-1.53-1.69-1.77-2.96l.05-.15,2.43-.41c.17,.7,.49,1.24,.95,1.61,.46,.38,1.14,.56,2.05,.56,.61,0,1.13-.14,1.55-.41,.42-.27,.63-.65,.63-1.13s-.24-.86-.72-1.14c-.48-.28-1.32-.58-2.53-.88-1.31-.32-2.3-.79-2.94-1.4-.65-.61-.97-1.4-.97-2.39,0-.65,.19-1.25,.56-1.79,.38-.55,.9-.98,1.59-1.29,.68-.32,1.46-.47,2.33-.47,1.38,0,2.5,.32,3.35,.96,.85,.64,1.37,1.56,1.54,2.75l-.05,.13-2.48,.33c-.12-.63-.39-1.11-.81-1.45-.42-.33-.94-.5-1.57-.5-.5,0-.93,.1-1.29,.31-.37,.2-.55,.5-.55,.9s.25,.75,.74,1.02c.49,.27,1.37,.58,2.61,.92,1.35,.36,2.35,.83,3,1.41,.65,.58,.97,1.36,.97,2.33,0,.79-.2,1.5-.61,2.14-.41,.64-.99,1.14-1.75,1.51-.76,.37-1.63,.55-2.62,.55-1.5,0-2.72-.35-3.66-1.06"></path>
    <path class="cls-1"
        d="M66.35,1.03l-.05,4.34h2.87v2.51h-2.87v6.73c0,.43,.12,.76,.37,.99,.25,.23,.61,.35,1.09,.35,.39,0,.79-.05,1.2-.15l.08,.05v2.33c-.7,.17-1.42,.26-2.15,.26-1.09,0-1.95-.3-2.59-.91-.63-.61-.95-1.49-.95-2.65V7.88h-2.38v-2.51h2.38V1.99"></path>
    <path class="cls-1"
        d="M71.75,5.38h2.92v1.59c1.08-1.23,2.3-1.84,3.69-1.84,.46,0,.83,.07,1.1,.2l-.38,2.36-.1,.08c-.2-.05-.49-.08-.84-.08-.72,0-1.37,.2-1.97,.61-.6,.41-1.09,1-1.48,1.77v8.11h-2.92V5.38Z"></path>
    <path class="cls-1"
        d="M82.85,17.24c-.76-.79-1.14-1.87-1.14-3.24V5.38h2.92V13.44c0,.79,.21,1.39,.63,1.8,.42,.42,1.01,.63,1.78,.63,.67,0,1.29-.2,1.87-.59,.58-.39,1.08-.91,1.51-1.56V5.38h2.92v12.8h-2.92v-1.64c-.51,.56-1.14,1.02-1.89,1.37-.75,.35-1.57,.52-2.46,.52-1.38,0-2.45-.4-3.21-1.19"></path>
    <path class="cls-1"
        d="M99.16,17.59c-1-.56-1.78-1.35-2.36-2.36-.57-1.01-.86-2.16-.86-3.46s.29-2.45,.86-3.46c.57-1.01,1.36-1.79,2.36-2.36,1-.56,2.11-.84,3.34-.84,1.67,0,3.05,.43,4.15,1.28,1.09,.85,1.76,2.04,2,3.56l-.08,.13-2.56,.15c-.19-.78-.58-1.4-1.18-1.86-.6-.45-1.37-.68-2.3-.68-1.09,0-1.98,.36-2.68,1.08-.69,.72-1.04,1.72-1.04,3s.35,2.28,1.04,3c.69,.72,1.58,1.08,2.68,1.08,.94,0,1.7-.22,2.28-.65,.58-.44,.98-1.06,1.2-1.88l2.56,.15,.08,.13c-.31,1.54-1,2.73-2.07,3.57-1.08,.84-2.43,1.27-4.07,1.27-1.23,0-2.34-.28-3.34-.84"></path>
    <path class="cls-1"
        d="M120.65,3.17c-.36-.36-.54-.78-.54-1.28s.18-.92,.54-1.28c.36-.36,.78-.54,1.28-.54s.92,.18,1.28,.54,.54,.79,.54,1.28-.18,.92-.54,1.28c-.36,.36-.79,.54-1.28,.54s-.92-.18-1.28-.54m-.18,2.2h2.92v12.8h-2.92V5.38Z"></path>
    <polygon class="cls-1"
        points="125.49 5.38 128.64 5.38 131.55 13.21 131.96 15.41 132.07 15.41 132.48 13.21 135.39 5.38 138.54 5.38 133.63 18.18 130.43 18.18 125.49 5.38"></polygon>
    <path class="cls-1"
        d="M142.46,17.6c-.97-.55-1.72-1.34-2.25-2.34-.53-1.01-.79-2.17-.79-3.48s.29-2.45,.88-3.46c.59-1.01,1.37-1.79,2.34-2.36,.97-.56,2.03-.84,3.17-.84,1.21,0,2.29,.26,3.24,.78,.95,.52,1.69,1.28,2.21,2.27,.53,.99,.79,2.16,.79,3.51v.9h-9.8c.07,1.04,.43,1.86,1.09,2.47,.66,.61,1.5,.91,2.52,.91,.87,0,1.59-.2,2.15-.6,.56-.4,.96-.95,1.2-1.65l2.56,.15,.08,.13c-.41,1.43-1.13,2.53-2.16,3.3-1.03,.77-2.33,1.15-3.88,1.15-1.26,0-2.38-.28-3.35-.83m6.84-7.16c-.09-.92-.45-1.64-1.09-2.16-.64-.52-1.44-.78-2.39-.78-.89,0-1.65,.26-2.29,.78-.64,.52-1.05,1.24-1.22,2.16h6.99Z"></path>
    <path class="cls-1"
        d="M115.34,1.09l-.05,4.34h2.87v2.51h-2.87v6.73c0,.43,.12,.76,.37,.99,.25,.23,.61,.35,1.09,.35,.39,0,.79-.05,1.2-.15l.08,.05v2.33c-.7,.17-1.42,.26-2.15,.26-1.09,0-1.95-.3-2.59-.91-.63-.61-.95-1.49-.95-2.65V7.94h-2.38v-2.51h2.38V2.05"></path>
</svg>